PathFileType	4	(X/Y/Z)	E:/New_biomech_experiments/2 Elbow flexion/Shreyas_pp_27_6_24_t02.trc	
DataRate	CameraRate	NumFrames	NumMarkers	Units	OrigDataRate	OrigDataStartFrame	OrigNumFrames	
120.00	120.00	105	3	m	120.00	738	5903	
Frame#	Time	r_humerus_epicondyle			r_acromion			r_radius_styloid			
		X1	Y1	Z1	X2	Y2	Z2	X3	Y3	Z3	

738	6.142	-0.02243	0.47941	0.24114	0.00368	0.82565	0.21173	0.03716	0.22331	0.28452 
739	6.150	-0.02261	0.47932	0.24114	0.00367	0.82559	0.21171	0.03765	0.22339	0.28445 
740	6.158	-0.02283	0.47922	0.24114	0.00367	0.82554	0.21168	0.03815	0.22346	0.28439 
741	6.167	-0.02307	0.47912	0.24115	0.00366	0.82548	0.21165	0.03866	0.22355	0.28432 
742	6.175	-0.02335	0.47902	0.24116	0.00366	0.82541	0.21163	0.03919	0.22363	0.28425 
743	6.183	-0.02365	0.47891	0.24117	0.00366	0.82535	0.21160	0.03972	0.22373	0.28419 
744	6.192	-0.02397	0.47881	0.24119	0.00365	0.82529	0.21157	0.04027	0.22383	0.28413 
745	6.200	-0.02429	0.47871	0.24122	0.00363	0.82523	0.21154	0.04083	0.22393	0.28407 
746	6.208	-0.02462	0.47861	0.24124	0.00359	0.82517	0.21151	0.04140	0.22404	0.28401 
747	6.217	-0.02495	0.47853	0.24126	0.00355	0.82512	0.21148	0.04199	0.22416	0.28395 
748	6.225	-0.02527	0.47845	0.24127	0.00349	0.82508	0.21145	0.04259	0.22430	0.28389 
749	6.233	-0.02557	0.47837	0.24128	0.00342	0.82504	0.21143	0.04320	0.22444	0.28383 
750	6.242	-0.02586	0.47830	0.24129	0.00333	0.82501	0.21139	0.04382	0.22460	0.28377 
751	6.250	-0.02612	0.47824	0.24128	0.00324	0.82499	0.21136	0.04445	0.22477	0.28370 
752	6.258	-0.02636	0.47817	0.24127	0.00314	0.82497	0.21133	0.04509	0.22496	0.28364 
753	6.267	-0.02658	0.47811	0.24126	0.00303	0.82495	0.21130	0.04573	0.22514	0.28359 
754	6.275	-0.02677	0.47806	0.24124	0.00292	0.82495	0.21126	0.04639	0.22534	0.28354 
755	6.283	-0.02694	0.47801	0.24121	0.00280	0.82495	0.21122	0.04705	0.22554	0.28348 
756	6.292	-0.02710	0.47797	0.24118	0.00268	0.82496	0.21119	0.04773	0.22574	0.28343 
757	6.300	-0.02724	0.47793	0.24115	0.00255	0.82497	0.21115	0.04843	0.22595	0.28338 
758	6.308	-0.02738	0.47790	0.24112	0.00243	0.82498	0.21110	0.04914	0.22616	0.28332 
759	6.317	-0.02751	0.47787	0.24109	0.00230	0.82500	0.21106	0.04986	0.22637	0.28326 
760	6.325	-0.02764	0.47784	0.24106	0.00217	0.82503	0.21102	0.05060	0.22659	0.28320 
761	6.333	-0.02777	0.47781	0.24103	0.00205	0.82505	0.21097	0.05136	0.22683	0.28314 
762	6.342	-0.02790	0.47778	0.24101	0.00193	0.82507	0.21092	0.05214	0.22708	0.28308 
763	6.350	-0.02805	0.47775	0.24099	0.00181	0.82508	0.21087	0.05294	0.22734	0.28302 
764	6.358	-0.02820	0.47771	0.24099	0.00170	0.82509	0.21083	0.05375	0.22762	0.28295 
765	6.367	-0.02835	0.47767	0.24099	0.00160	0.82509	0.21078	0.05458	0.22790	0.28289 
766	6.375	-0.02851	0.47763	0.24099	0.00151	0.82509	0.21073	0.05542	0.22819	0.28281 
767	6.383	-0.02867	0.47758	0.24101	0.00142	0.82507	0.21068	0.05628	0.22847	0.28273 
768	6.392	-0.02883	0.47753	0.24102	0.00133	0.82505	0.21064	0.05717	0.22875	0.28265 
769	6.400	-0.02899	0.47747	0.24105	0.00126	0.82503	0.21059	0.05807	0.22904	0.28257 
770	6.408	-0.02914	0.47742	0.24108	0.00118	0.82500	0.21054	0.05900	0.22933	0.28249 
771	6.417	-0.02927	0.47736	0.24111	0.00111	0.82497	0.21049	0.05993	0.22962	0.28242 
772	6.425	-0.02939	0.47731	0.24115	0.00103	0.82493	0.21044	0.06085	0.22991	0.28235 
773	6.433	-0.02948	0.47725	0.24119	0.00096	0.82490	0.21039	0.06178	0.23021	0.28228 
774	6.442	-0.02955	0.47720	0.24124	0.00087	0.82488	0.21034	0.06270	0.23051	0.28222 
775	6.450	-0.02960	0.47716	0.24129	0.00079	0.82485	0.21029	0.06362	0.23081	0.28217 
776	6.458	-0.02962	0.47711	0.24133	0.00069	0.82484	0.21024	0.06454	0.23110	0.28212 
777	6.467	-0.02961	0.47707	0.24138	0.00060	0.82483	0.21019	0.06545	0.23139	0.28207 
778	6.475	-0.02957	0.47704	0.24142	0.00050	0.82483	0.21014	0.06636	0.23167	0.28202 
779	6.483	-0.02951	0.47701	0.24146	0.00039	0.82484	0.21009	0.06726	0.23195	0.28198 
780	6.492	-0.02943	0.47699	0.24149	0.00027	0.82486	0.21004	0.06814	0.23223	0.28193 
781	6.500	-0.02933	0.47697	0.24151	0.00015	0.82488	0.20999	0.06899	0.23251	0.28190 
782	6.508	-0.02922	0.47696	0.24152	0.00002	0.82491	0.20994	0.06983	0.23278	0.28187 
783	6.517	-0.02909	0.47695	0.24152	-0.00011	0.82494	0.20989	0.07064	0.23306	0.28185 
784	6.525	-0.02895	0.47694	0.24152	-0.00026	0.82497	0.20983	0.07143	0.23334	0.28184 
785	6.533	-0.02881	0.47694	0.24152	-0.00041	0.82500	0.20977	0.07220	0.23361	0.28183 
786	6.542	-0.02867	0.47694	0.24151	-0.00056	0.82504	0.20972	0.07296	0.23388	0.28182 
787	6.550	-0.02853	0.47693	0.24151	-0.00072	0.82507	0.20965	0.07371	0.23415	0.28180 
788	6.558	-0.02839	0.47693	0.24150	-0.00088	0.82510	0.20959	0.07445	0.23441	0.28178 
789	6.567	-0.02827	0.47693	0.24151	-0.00104	0.82513	0.20952	0.07517	0.23467	0.28177 
790	6.575	-0.02816	0.47693	0.24152	-0.00120	0.82515	0.20945	0.07588	0.23492	0.28175 
791	6.583	-0.02808	0.47693	0.24153	-0.00136	0.82517	0.20938	0.07659	0.23518	0.28174 
792	6.592	-0.02801	0.47692	0.24156	-0.00150	0.82519	0.20931	0.07727	0.23544	0.28172 
793	6.600	-0.02796	0.47691	0.24159	-0.00164	0.82520	0.20923	0.07794	0.23570	0.28170 
794	6.608	-0.02794	0.47690	0.24162	-0.00177	0.82520	0.20916	0.07860	0.23595	0.28168 
795	6.617	-0.02794	0.47688	0.24166	-0.00189	0.82519	0.20909	0.07923	0.23621	0.28167 
796	6.625	-0.02797	0.47686	0.24169	-0.00199	0.82518	0.20902	0.07984	0.23646	0.28166 
797	6.633	-0.02801	0.47684	0.24173	-0.00210	0.82517	0.20895	0.08043	0.23672	0.28166 
798	6.642	-0.02807	0.47681	0.24175	-0.00219	0.82515	0.20888	0.08100	0.23697	0.28167 
799	6.650	-0.02816	0.47679	0.24177	-0.00228	0.82512	0.20882	0.08155	0.23723	0.28169 
800	6.658	-0.02825	0.47677	0.24178	-0.00237	0.82510	0.20875	0.08208	0.23749	0.28172 
801	6.667	-0.02835	0.47674	0.24178	-0.00246	0.82507	0.20868	0.08259	0.23775	0.28175 
802	6.675	-0.02846	0.47672	0.24177	-0.00255	0.82504	0.20862	0.08309	0.23801	0.28178 
803	6.683	-0.02856	0.47669	0.24176	-0.00264	0.82501	0.20856	0.08358	0.23827	0.28183 
804	6.692	-0.02866	0.47667	0.24174	-0.00274	0.82498	0.20850	0.08405	0.23852	0.28188 
805	6.700	-0.02875	0.47665	0.24172	-0.00283	0.82495	0.20844	0.08451	0.23876	0.28195 
806	6.708	-0.02881	0.47664	0.24171	-0.00293	0.82493	0.20838	0.08497	0.23900	0.28202 
807	6.717	-0.02887	0.47662	0.24169	-0.00304	0.82491	0.20832	0.08543	0.23924	0.28210 
808	6.725	-0.02891	0.47661	0.24168	-0.00314	0.82489	0.20826	0.08590	0.23948	0.28219 
809	6.733	-0.02893	0.47659	0.24168	-0.00324	0.82487	0.20819	0.08636	0.23971	0.28229 
810	6.742	-0.02894	0.47658	0.24168	-0.00334	0.82485	0.20813	0.08683	0.23995	0.28240 
811	6.750	-0.02894	0.47657	0.24168	-0.00344	0.82483	0.20807	0.08730	0.24018	0.28252 
812	6.758	-0.02895	0.47655	0.24169	-0.00354	0.82481	0.20801	0.08777	0.24042	0.28264 
813	6.767	-0.02895	0.47654	0.24171	-0.00363	0.82478	0.20794	0.08824	0.24065	0.28277 
814	6.775	-0.02896	0.47653	0.24173	-0.00372	0.82476	0.20787	0.08871	0.24090	0.28291 
815	6.783	-0.02897	0.47652	0.24176	-0.00380	0.82474	0.20781	0.08919	0.24115	0.28306 
816	6.792	-0.02900	0.47651	0.24180	-0.00387	0.82472	0.20774	0.08968	0.24141	0.28322 
817	6.800	-0.02903	0.47650	0.24185	-0.00394	0.82470	0.20767	0.09017	0.24169	0.28339 
818	6.808	-0.02907	0.47650	0.24190	-0.00401	0.82468	0.20761	0.09067	0.24199	0.28357 
819	6.817	-0.02912	0.47651	0.24196	-0.00407	0.82466	0.20754	0.09117	0.24230	0.28376 
820	6.825	-0.02919	0.47652	0.24202	-0.00412	0.82465	0.20748	0.09168	0.24262	0.28397 
821	6.833	-0.02927	0.47653	0.24208	-0.00418	0.82463	0.20742	0.09219	0.24296	0.28418 
822	6.842	-0.02936	0.47654	0.24215	-0.00423	0.82462	0.20736	0.09272	0.24333	0.28441 
823	6.850	-0.02946	0.47656	0.24222	-0.00427	0.82460	0.20731	0.09325	0.24371	0.28466 
824	6.858	-0.02958	0.47657	0.24229	-0.00431	0.82459	0.20726	0.09379	0.24410	0.28491 
825	6.867	-0.02972	0.47657	0.24237	-0.00435	0.82456	0.20721	0.09433	0.24450	0.28518 
826	6.875	-0.02986	0.47658	0.24245	-0.00439	0.82454	0.20717	0.09489	0.24493	0.28545 
827	6.883	-0.03002	0.47658	0.24254	-0.00442	0.82451	0.20713	0.09546	0.24536	0.28574 
828	6.892	-0.03019	0.47658	0.24263	-0.00445	0.82448	0.20709	0.09604	0.24582	0.28605 
829	6.900	-0.03036	0.47658	0.24273	-0.00448	0.82444	0.20706	0.09663	0.24628	0.28636 
830	6.908	-0.03055	0.47657	0.24283	-0.00451	0.82440	0.20703	0.09722	0.24675	0.28668 
831	6.917	-0.03074	0.47656	0.24295	-0.00454	0.82435	0.20700	0.09782	0.24724	0.28701 
832	6.925	-0.03094	0.47655	0.24307	-0.00458	0.82430	0.20698	0.09844	0.24774	0.28735 
833	6.933	-0.03114	0.47653	0.24319	-0.00461	0.82426	0.20697	0.09906	0.24825	0.28770 
834	6.942	-0.03133	0.47652	0.24331	-0.00465	0.82420	0.20696	0.09969	0.24877	0.28805 
835	6.950	-0.03152	0.47650	0.24344	-0.00468	0.82415	0.20695	0.10032	0.24929	0.28842 
836	6.958	-0.03170	0.47648	0.24356	-0.00473	0.82410	0.20695	0.10097	0.24981	0.28879 
837	6.967	-0.03186	0.47647	0.24369	-0.00477	0.82405	0.20695	0.10163	0.25035	0.28916 
838	6.975	-0.03202	0.47645	0.24381	-0.00482	0.82400	0.20695	0.10230	0.25089	0.28953 
839	6.983	-0.03215	0.47644	0.24394	-0.00487	0.82395	0.20695	0.10299	0.25143	0.28989 
840	6.992	-0.03227	0.47644	0.24407	-0.00493	0.82391	0.20695	0.10370	0.25199	0.29026 
841	7.000	-0.03237	0.47643	0.24420	-0.00497	0.82387	0.20695	0.10442	0.25256	0.29062 
842	7.008	-0.03246	0.47643	0.24434	-0.00502	0.82383	0.20695	0.10516	0.25314	0.29098 
